<svg width="45" height="52" viewBox="0 0 45 52" fill="none" xmlns="http://www.w3.org/2000/svg">
<path d="M16.877 1.5H28.123C29.8416 1.50004 31.16 2.09964 32.0537 3.05957C32.955 4.02765 33.5 5.4447 33.5 7.20215V17.7979C33.5 19.5553 32.955 20.9723 32.0537 21.9404C31.16 22.9004 29.8416 23.5 28.123 23.5H16.877C15.1584 23.5 13.84 22.9004 12.9463 21.9404C12.045 20.9723 11.5 19.5553 11.5 17.7979V7.20215C11.5 5.44602 12.0473 4.02921 12.9502 3.06055C13.8459 2.0997 15.1647 1.50004 16.877 1.5Z" stroke="#C6CFDC" stroke-width="2" stroke-linecap="round" stroke-linejoin="round"/>
<path d="M22.5001 8.09277V16.8844" stroke="#C6CFDC" stroke-width="2" stroke-linecap="round" stroke-linejoin="round"/>
<path d="M26.8999 12.4886H18.0999" stroke="#C6CFDC" stroke-width="2" stroke-linecap="round" stroke-linejoin="round"/>
<path d="M5.876 47.682C5.21333 47.682 4.59033 47.5513 4.007 47.29C3.42367 47.024 2.91033 46.66 2.467 46.198C2.02833 45.7313 1.683 45.19 1.431 44.574C1.18367 43.958 1.06 43.3 1.06 42.6C1.06 41.9 1.18367 41.242 1.431 40.626C1.683 40.01 2.02833 39.471 2.467 39.009C2.91033 38.5423 3.42367 38.1783 4.007 37.917C4.59033 37.651 5.21333 37.518 5.876 37.518C6.66933 37.518 7.39967 37.7023 8.067 38.071C8.73433 38.4397 9.28733 38.9297 9.726 39.541L8.431 40.234C8.12767 39.8513 7.752 39.5457 7.304 39.317C6.856 39.0883 6.38 38.974 5.876 38.974C5.40933 38.974 4.973 39.0697 4.567 39.261C4.161 39.4523 3.804 39.7137 3.496 40.045C3.188 40.3763 2.94767 40.7613 2.775 41.2C2.60233 41.6387 2.516 42.1053 2.516 42.6C2.516 43.0993 2.60233 43.5683 2.775 44.007C2.94767 44.441 3.188 44.826 3.496 45.162C3.80867 45.4933 4.168 45.7547 4.574 45.946C4.98 46.1327 5.414 46.226 5.876 46.226C6.38933 46.226 6.86767 46.1117 7.311 45.883C7.759 45.6497 8.13233 45.3417 8.431 44.959L9.726 45.666C9.28733 46.2773 8.73433 46.7673 8.067 47.136C7.39967 47.5 6.66933 47.682 5.876 47.682ZM11.047 47.5V40.5H12.503V41.242C12.7457 40.9527 13.0444 40.724 13.399 40.556C13.7537 40.388 14.1364 40.304 14.547 40.304C14.8084 40.304 15.0674 40.339 15.324 40.409L14.743 41.879C14.561 41.809 14.379 41.774 14.197 41.774C13.889 41.774 13.6067 41.851 13.35 42.005C13.0934 42.1543 12.888 42.3573 12.734 42.614C12.58 42.8707 12.503 43.1553 12.503 43.468V47.5H11.047ZM18.8848 47.682C18.2408 47.682 17.6528 47.5163 17.1208 47.185C16.5935 46.8537 16.1712 46.4103 15.8538 45.855C15.5412 45.295 15.3848 44.6767 15.3848 44C15.3848 43.4867 15.4758 43.0083 15.6578 42.565C15.8398 42.117 16.0895 41.725 16.4068 41.389C16.7288 41.0483 17.1022 40.7823 17.5268 40.591C17.9515 40.3997 18.4042 40.304 18.8848 40.304C19.4215 40.304 19.9138 40.416 20.3618 40.64C20.8098 40.8593 21.1925 41.165 21.5098 41.557C21.8272 41.9443 22.0605 42.3923 22.2098 42.901C22.3592 43.405 22.4035 43.9417 22.3428 44.511H16.9458C17.0065 44.833 17.1232 45.1247 17.2958 45.386C17.4732 45.6427 17.6972 45.8457 17.9678 45.995C18.2432 46.1443 18.5488 46.2213 18.8848 46.226C19.2395 46.226 19.5615 46.1373 19.8508 45.96C20.1448 45.7827 20.3852 45.5377 20.5718 45.225L22.0488 45.568C21.7688 46.1887 21.3465 46.6973 20.7818 47.094C20.2172 47.486 19.5848 47.682 18.8848 47.682ZM16.8968 43.398H20.8728C20.8262 43.062 20.7072 42.7587 20.5158 42.488C20.3292 42.2127 20.0935 41.9957 19.8088 41.837C19.5288 41.6737 19.2208 41.592 18.8848 41.592C18.5535 41.592 18.2455 41.6713 17.9608 41.83C17.6808 41.9887 17.4475 42.2057 17.2608 42.481C17.0788 42.7517 16.9575 43.0573 16.8968 43.398ZM28.9344 40.5H30.3904V47.5H28.9274L28.8714 46.485C28.6661 46.8443 28.3884 47.1337 28.0384 47.353C27.6884 47.5723 27.2754 47.682 26.7994 47.682C26.2861 47.682 25.8031 47.5863 25.3504 47.395C24.8978 47.199 24.4988 46.9283 24.1534 46.583C23.8128 46.2377 23.5468 45.841 23.3554 45.393C23.1641 44.9403 23.0684 44.455 23.0684 43.937C23.0684 43.4377 23.1618 42.9687 23.3484 42.53C23.5351 42.0867 23.7941 41.6993 24.1254 41.368C24.4568 41.0367 24.8394 40.7777 25.2734 40.591C25.7121 40.3997 26.1811 40.304 26.6804 40.304C27.1891 40.304 27.6371 40.4207 28.0244 40.654C28.4164 40.8827 28.7408 41.1767 28.9974 41.536L28.9344 40.5ZM26.7644 46.275C27.1751 46.275 27.5344 46.1747 27.8424 45.974C28.1504 45.7687 28.3884 45.4933 28.5564 45.148C28.7291 44.8027 28.8154 44.42 28.8154 44C28.8154 43.5753 28.7291 43.1903 28.5564 42.845C28.3838 42.4997 28.1434 42.2267 27.8354 42.026C27.5321 41.8207 27.1751 41.718 26.7644 41.718C26.3584 41.718 25.9874 41.8207 25.6514 42.026C25.3154 42.2313 25.0494 42.5067 24.8534 42.852C24.6574 43.1973 24.5594 43.58 24.5594 44C24.5594 44.4247 24.6598 44.8097 24.8604 45.155C25.0658 45.4957 25.3341 45.7687 25.6654 45.974C26.0014 46.1747 26.3678 46.275 26.7644 46.275ZM35.4833 41.956H34.0133L34.0063 47.5H32.5503L32.5573 41.956H31.4443V40.5H32.5573L32.5503 38.302H34.0063L34.0133 40.5H35.4833V41.956ZM39.6524 47.682C39.0084 47.682 38.4204 47.5163 37.8884 47.185C37.3611 46.8537 36.9388 46.4103 36.6214 45.855C36.3088 45.295 36.1524 44.6767 36.1524 44C36.1524 43.4867 36.2434 43.0083 36.4254 42.565C36.6074 42.117 36.8571 41.725 37.1744 41.389C37.4964 41.0483 37.8698 40.7823 38.2944 40.591C38.7191 40.3997 39.1718 40.304 39.6524 40.304C40.1891 40.304 40.6814 40.416 41.1294 40.64C41.5774 40.8593 41.9601 41.165 42.2774 41.557C42.5948 41.9443 42.8281 42.3923 42.9774 42.901C43.1268 43.405 43.1711 43.9417 43.1104 44.511H37.7134C37.7741 44.833 37.8908 45.1247 38.0634 45.386C38.2408 45.6427 38.4648 45.8457 38.7354 45.995C39.0108 46.1443 39.3164 46.2213 39.6524 46.226C40.0071 46.226 40.3291 46.1373 40.6184 45.96C40.9124 45.7827 41.1528 45.5377 41.3394 45.225L42.8164 45.568C42.5364 46.1887 42.1141 46.6973 41.5494 47.094C40.9848 47.486 40.3524 47.682 39.6524 47.682ZM37.6644 43.398H41.6404C41.5938 43.062 41.4748 42.7587 41.2834 42.488C41.0968 42.2127 40.8611 41.9957 40.5764 41.837C40.2964 41.6737 39.9884 41.592 39.6524 41.592C39.3211 41.592 39.0131 41.6713 38.7284 41.83C38.4484 41.9887 38.2151 42.2057 38.0284 42.481C37.8464 42.7517 37.7251 43.0573 37.6644 43.398Z" fill="#C6CFDC"/>
</svg>
