<svg width="34" height="52" viewBox="0 0 34 52" fill="none" xmlns="http://www.w3.org/2000/svg">
<rect x="6" y="1.5" width="22" height="22" rx="5" stroke="#C6CFDC" stroke-width="2"/>
<path d="M12 12.5L15.3294 15.5L22 9.5" stroke="#C6CFDC" stroke-width="2" stroke-linecap="round" stroke-linejoin="round"/>
<path d="M1.34 47.5V37.7H4.581C5.25767 37.7 5.89233 37.8283 6.485 38.085C7.07767 38.337 7.598 38.6893 8.046 39.142C8.494 39.59 8.844 40.1103 9.096 40.703C9.35267 41.291 9.481 41.9233 9.481 42.6C9.481 43.2767 9.35267 43.9113 9.096 44.504C8.844 45.092 8.494 45.6123 8.046 46.065C7.598 46.513 7.07767 46.8653 6.485 47.122C5.89233 47.374 5.25767 47.5 4.581 47.5H1.34ZM2.796 46.044H4.581C5.057 46.044 5.50033 45.9553 5.911 45.778C6.32633 45.6007 6.69267 45.3533 7.01 45.036C7.332 44.7187 7.58167 44.3523 7.759 43.937C7.93633 43.5217 8.025 43.076 8.025 42.6C8.025 42.124 7.93633 41.6783 7.759 41.263C7.58167 40.8477 7.332 40.4813 7.01 40.164C6.69267 39.8467 6.32633 39.5993 5.911 39.422C5.50033 39.2447 5.057 39.156 4.581 39.156H2.796V46.044ZM13.6485 47.682C13.0045 47.682 12.4165 47.5163 11.8845 47.185C11.3572 46.8537 10.9348 46.4103 10.6175 45.855C10.3048 45.295 10.1485 44.6767 10.1485 44C10.1485 43.4867 10.2395 43.0083 10.4215 42.565C10.6035 42.117 10.8532 41.725 11.1705 41.389C11.4925 41.0483 11.8658 40.7823 12.2905 40.591C12.7152 40.3997 13.1678 40.304 13.6485 40.304C14.2925 40.304 14.8782 40.4697 15.4055 40.801C15.9375 41.1323 16.3598 41.578 16.6725 42.138C16.9898 42.698 17.1485 43.3187 17.1485 44C17.1485 44.5087 17.0575 44.9847 16.8755 45.428C16.6935 45.8713 16.4415 46.2633 16.1195 46.604C15.8022 46.94 15.4312 47.2037 15.0065 47.395C14.5865 47.5863 14.1338 47.682 13.6485 47.682ZM13.6485 46.226C14.0358 46.226 14.3835 46.1233 14.6915 45.918C14.9995 45.7127 15.2422 45.442 15.4195 45.106C15.6015 44.7653 15.6925 44.3967 15.6925 44C15.6925 43.594 15.5992 43.2207 15.4125 42.88C15.2305 42.5393 14.9855 42.2687 14.6775 42.068C14.3695 41.8627 14.0265 41.76 13.6485 41.76C13.2658 41.76 12.9182 41.8627 12.6055 42.068C12.2975 42.2733 12.0525 42.5463 11.8705 42.887C11.6932 43.2277 11.6045 43.5987 11.6045 44C11.6045 44.4153 11.6978 44.791 11.8845 45.127C12.0712 45.463 12.3185 45.7313 12.6265 45.932C12.9392 46.128 13.2798 46.226 13.6485 46.226ZM24.5795 43.111V47.5H23.1235V43.468C23.1235 43.1553 23.0465 42.8707 22.8925 42.614C22.7431 42.3573 22.5401 42.1543 22.2835 42.005C22.0315 41.851 21.7468 41.774 21.4295 41.774C21.1215 41.774 20.8391 41.851 20.5825 42.005C20.3258 42.1543 20.1205 42.3573 19.9665 42.614C19.8125 42.8707 19.7355 43.1553 19.7355 43.468V47.5H18.2795V40.5H19.7355V41.242C19.9781 40.9527 20.2768 40.724 20.6315 40.556C20.9861 40.388 21.3688 40.304 21.7795 40.304C22.2975 40.304 22.7688 40.43 23.1935 40.682C23.6181 40.934 23.9541 41.2723 24.2015 41.697C24.4535 42.1217 24.5795 42.593 24.5795 43.111ZM28.92 47.682C28.276 47.682 27.688 47.5163 27.156 47.185C26.6287 46.8537 26.2063 46.4103 25.889 45.855C25.5763 45.295 25.42 44.6767 25.42 44C25.42 43.4867 25.511 43.0083 25.693 42.565C25.875 42.117 26.1247 41.725 26.442 41.389C26.764 41.0483 27.1373 40.7823 27.562 40.591C27.9867 40.3997 28.4393 40.304 28.92 40.304C29.4567 40.304 29.949 40.416 30.397 40.64C30.845 40.8593 31.2277 41.165 31.545 41.557C31.8623 41.9443 32.0957 42.3923 32.245 42.901C32.3943 43.405 32.4387 43.9417 32.378 44.511H26.981C27.0417 44.833 27.1583 45.1247 27.331 45.386C27.5083 45.6427 27.7323 45.8457 28.003 45.995C28.2783 46.1443 28.584 46.2213 28.92 46.226C29.2747 46.226 29.5967 46.1373 29.886 45.96C30.18 45.7827 30.4203 45.5377 30.607 45.225L32.084 45.568C31.804 46.1887 31.3817 46.6973 30.817 47.094C30.2523 47.486 29.62 47.682 28.92 47.682ZM26.932 43.398H30.908C30.8613 43.062 30.7423 42.7587 30.551 42.488C30.3643 42.2127 30.1287 41.9957 29.844 41.837C29.564 41.6737 29.256 41.592 28.92 41.592C28.5887 41.592 28.2807 41.6713 27.996 41.83C27.716 41.9887 27.4827 42.2057 27.296 42.481C27.114 42.7517 26.9927 43.0573 26.932 43.398Z" fill="#C6CFDC"/>
</svg>
