<svg width="45" height="52" viewBox="0 0 45 52" fill="none" xmlns="http://www.w3.org/2000/svg">
<path d="M27.6917 17.6569L32.5 22.5M30.2778 11.3889C30.2778 16.2981 26.2981 20.2778 21.3889 20.2778C16.4797 20.2778 12.5 16.2981 12.5 11.3889C12.5 6.47969 16.4797 2.5 21.3889 2.5C26.2981 2.5 30.2778 6.47969 30.2778 11.3889Z" stroke="#C6CFDC" stroke-width="2" stroke-linecap="round" stroke-linejoin="round"/>
<path d="M4.833 47.682C4.29633 47.682 3.78067 47.598 3.286 47.43C2.79133 47.262 2.35967 47.0217 1.991 46.709C1.62233 46.3917 1.35867 46.016 1.2 45.582L2.565 45.071C2.64433 45.295 2.796 45.4957 3.02 45.673C3.24867 45.8457 3.51933 45.981 3.832 46.079C4.14933 46.177 4.483 46.226 4.833 46.226C5.20633 46.226 5.55633 46.1653 5.883 46.044C6.21433 45.9227 6.48033 45.7547 6.681 45.54C6.88633 45.3253 6.989 45.0733 6.989 44.784C6.989 44.4853 6.88167 44.2403 6.667 44.049C6.457 43.8577 6.18633 43.706 5.855 43.594C5.52833 43.482 5.18767 43.398 4.833 43.342C4.147 43.23 3.531 43.0667 2.985 42.852C2.44367 42.6373 2.01433 42.3363 1.697 41.949C1.38433 41.5617 1.228 41.0577 1.228 40.437C1.228 39.8537 1.39367 39.345 1.725 38.911C2.061 38.477 2.502 38.141 3.048 37.903C3.59867 37.6603 4.19367 37.539 4.833 37.539C5.36033 37.539 5.869 37.623 6.359 37.791C6.85367 37.9543 7.28767 38.1947 7.661 38.512C8.039 38.8247 8.30967 39.205 8.473 39.653L7.094 40.15C7.01467 39.9213 6.863 39.723 6.639 39.555C6.415 39.3823 6.14433 39.247 5.827 39.149C5.51433 39.051 5.183 39.002 4.833 39.002C4.45967 38.9973 4.10967 39.058 3.783 39.184C3.461 39.3053 3.19733 39.4733 2.992 39.688C2.78667 39.9027 2.684 40.1523 2.684 40.437C2.684 40.787 2.77967 41.053 2.971 41.235C3.16233 41.417 3.419 41.5523 3.741 41.641C4.06767 41.725 4.43167 41.802 4.833 41.872C5.477 41.9747 6.072 42.145 6.618 42.383C7.16867 42.621 7.60967 42.9383 7.941 43.335C8.277 43.727 8.445 44.21 8.445 44.784C8.445 45.3627 8.277 45.8713 7.941 46.31C7.60967 46.744 7.16867 47.0823 6.618 47.325C6.072 47.563 5.477 47.682 4.833 47.682ZM12.9102 47.682C12.2662 47.682 11.6782 47.5163 11.1462 47.185C10.6189 46.8537 10.1966 46.4103 9.87923 45.855C9.56657 45.295 9.41023 44.6767 9.41023 44C9.41023 43.4867 9.50123 43.0083 9.68323 42.565C9.86523 42.117 10.1149 41.725 10.4322 41.389C10.7542 41.0483 11.1276 40.7823 11.5522 40.591C11.9769 40.3997 12.4296 40.304 12.9102 40.304C13.4469 40.304 13.9392 40.416 14.3872 40.64C14.8352 40.8593 15.2179 41.165 15.5352 41.557C15.8526 41.9443 16.0859 42.3923 16.2352 42.901C16.3846 43.405 16.4289 43.9417 16.3682 44.511H10.9712C11.0319 44.833 11.1486 45.1247 11.3212 45.386C11.4986 45.6427 11.7226 45.8457 11.9932 45.995C12.2686 46.1443 12.5742 46.2213 12.9102 46.226C13.2649 46.226 13.5869 46.1373 13.8762 45.96C14.1702 45.7827 14.4106 45.5377 14.5972 45.225L16.0742 45.568C15.7942 46.1887 15.3719 46.6973 14.8072 47.094C14.2426 47.486 13.6102 47.682 12.9102 47.682ZM10.9222 43.398H14.8982C14.8516 43.062 14.7326 42.7587 14.5412 42.488C14.3546 42.2127 14.1189 41.9957 13.8342 41.837C13.5542 41.6737 13.2462 41.592 12.9102 41.592C12.5789 41.592 12.2709 41.6713 11.9862 41.83C11.7062 41.9887 11.4729 42.2057 11.2862 42.481C11.1042 42.7517 10.9829 43.0573 10.9222 43.398ZM22.9598 40.5H24.4158V47.5H22.9528L22.8968 46.485C22.6915 46.8443 22.4138 47.1337 22.0638 47.353C21.7138 47.5723 21.3008 47.682 20.8248 47.682C20.3115 47.682 19.8285 47.5863 19.3758 47.395C18.9232 47.199 18.5242 46.9283 18.1788 46.583C17.8382 46.2377 17.5722 45.841 17.3808 45.393C17.1895 44.9403 17.0938 44.455 17.0938 43.937C17.0938 43.4377 17.1872 42.9687 17.3738 42.53C17.5605 42.0867 17.8195 41.6993 18.1508 41.368C18.4822 41.0367 18.8648 40.7777 19.2988 40.591C19.7375 40.3997 20.2065 40.304 20.7058 40.304C21.2145 40.304 21.6625 40.4207 22.0498 40.654C22.4418 40.8827 22.7662 41.1767 23.0228 41.536L22.9598 40.5ZM20.7898 46.275C21.2005 46.275 21.5598 46.1747 21.8678 45.974C22.1758 45.7687 22.4138 45.4933 22.5818 45.148C22.7545 44.8027 22.8408 44.42 22.8408 44C22.8408 43.5753 22.7545 43.1903 22.5818 42.845C22.4092 42.4997 22.1688 42.2267 21.8608 42.026C21.5575 41.8207 21.2005 41.718 20.7898 41.718C20.3838 41.718 20.0128 41.8207 19.6768 42.026C19.3408 42.2313 19.0748 42.5067 18.8788 42.852C18.6828 43.1973 18.5848 43.58 18.5848 44C18.5848 44.4247 18.6852 44.8097 18.8858 45.155C19.0912 45.4957 19.3595 45.7687 19.6908 45.974C20.0268 46.1747 20.3932 46.275 20.7898 46.275ZM25.8127 47.5V40.5H27.2687V41.242C27.5113 40.9527 27.81 40.724 28.1647 40.556C28.5193 40.388 28.902 40.304 29.3127 40.304C29.574 40.304 29.833 40.339 30.0897 40.409L29.5087 41.879C29.3267 41.809 29.1447 41.774 28.9627 41.774C28.6547 41.774 28.3723 41.851 28.1157 42.005C27.859 42.1543 27.6537 42.3573 27.4997 42.614C27.3457 42.8707 27.2687 43.1553 27.2687 43.468V47.5H25.8127ZM35.1415 45.512L36.4435 46.219C36.1261 46.6623 35.7225 47.017 35.2325 47.283C34.7471 47.549 34.2198 47.682 33.6505 47.682C33.0065 47.682 32.4185 47.5163 31.8865 47.185C31.3591 46.8537 30.9368 46.4103 30.6195 45.855C30.3068 45.295 30.1505 44.6767 30.1505 44C30.1505 43.4867 30.2415 43.0083 30.4235 42.565C30.6055 42.117 30.8551 41.725 31.1725 41.389C31.4945 41.0483 31.8678 40.7823 32.2925 40.591C32.7171 40.3997 33.1698 40.304 33.6505 40.304C34.2198 40.304 34.7471 40.437 35.2325 40.703C35.7225 40.969 36.1261 41.326 36.4435 41.774L35.1415 42.481C34.9455 42.2477 34.7168 42.0703 34.4555 41.949C34.1941 41.823 33.9258 41.76 33.6505 41.76C33.2678 41.76 32.9201 41.865 32.6075 42.075C32.2995 42.2803 32.0545 42.5533 31.8725 42.894C31.6951 43.23 31.6065 43.5987 31.6065 44C31.6065 44.3967 31.6975 44.7653 31.8795 45.106C32.0615 45.442 32.3065 45.7127 32.6145 45.918C32.9271 46.1233 33.2725 46.226 33.6505 46.226C33.9398 46.226 34.2151 46.1607 34.4765 46.03C34.7378 45.8993 34.9595 45.7267 35.1415 45.512ZM43.8295 43.111V47.5H42.3735V43.468C42.3735 43.1553 42.2965 42.8707 42.1425 42.614C41.9931 42.3573 41.7901 42.1543 41.5335 42.005C41.2815 41.851 40.9968 41.774 40.6795 41.774C40.3715 41.774 40.0891 41.851 39.8325 42.005C39.5758 42.1543 39.3705 42.3573 39.2165 42.614C39.0625 42.8707 38.9855 43.1553 38.9855 43.468V47.5H37.5295V37H38.9855V41.242C39.2281 40.9527 39.5268 40.724 39.8815 40.556C40.2361 40.388 40.6188 40.304 41.0295 40.304C41.5475 40.304 42.0188 40.43 42.4435 40.682C42.8681 40.934 43.2041 41.2723 43.4515 41.697C43.7035 42.1217 43.8295 42.593 43.8295 43.111Z" fill="#C6CFDC"/>
</svg>
