<svg width="33" height="52" viewBox="0 0 33 52" fill="none" xmlns="http://www.w3.org/2000/svg">
<path d="M6.5 11.5H12.5C12.7652 11.5 13.0196 11.3946 13.2071 11.2071C13.3946 11.0196 13.5 10.7652 13.5 10.5V4.5C13.5 4.23478 13.3946 3.98043 13.2071 3.79289C13.0196 3.60536 12.7652 3.5 12.5 3.5H6.5C6.23478 3.5 5.98043 3.60536 5.79289 3.79289C5.60536 3.98043 5.5 4.23478 5.5 4.5V10.5C5.5 10.7652 5.60536 11.0196 5.79289 11.2071C5.98043 11.3946 6.23478 11.5 6.5 11.5ZM7.5 5.5H11.5V9.5H7.5V5.5ZM12.5 21.5C12.7652 21.5 13.0196 21.3946 13.2071 21.2071C13.3946 21.0196 13.5 20.7652 13.5 20.5V14.5C13.5 14.2348 13.3946 13.9804 13.2071 13.7929C13.0196 13.6054 12.7652 13.5 12.5 13.5H6.5C6.23478 13.5 5.98043 13.6054 5.79289 13.7929C5.60536 13.9804 5.5 14.2348 5.5 14.5V20.5C5.5 20.7652 5.60536 21.0196 5.79289 21.2071C5.98043 21.3946 6.23478 21.5 6.5 21.5H12.5ZM7.5 15.5H11.5V19.5H7.5V15.5ZM27.5 7.5C27.5 7.76522 27.3946 8.01957 27.2071 8.20711C27.0196 8.39464 26.7652 8.5 26.5 8.5H16.5C16.2348 8.5 15.9804 8.39464 15.7929 8.20711C15.6054 8.01957 15.5 7.76522 15.5 7.5C15.5 7.23478 15.6054 6.98043 15.7929 6.79289C15.9804 6.60536 16.2348 6.5 16.5 6.5H26.5C26.7652 6.5 27.0196 6.60536 27.2071 6.79289C27.3946 6.98043 27.5 7.23478 27.5 7.5ZM27.5 17.5C27.5 17.7652 27.3946 18.0196 27.2071 18.2071C27.0196 18.3946 26.7652 18.5 26.5 18.5H16.5C16.2348 18.5 15.9804 18.3946 15.7929 18.2071C15.6054 18.0196 15.5 17.7652 15.5 17.5C15.5 17.2348 15.6054 16.9804 15.7929 16.7929C15.9804 16.6054 16.2348 16.5 16.5 16.5H26.5C26.7652 16.5 27.0196 16.6054 27.2071 16.7929C27.3946 16.9804 27.5 17.2348 27.5 17.5Z" fill="#C6CFDC"/>
<path d="M8.753 37.7V39.156H5.631V47.5H4.175V39.156H1.06V37.7H8.753ZM12.172 47.682C11.528 47.682 10.94 47.5163 10.408 47.185C9.88062 46.8537 9.45829 46.4103 9.14095 45.855C8.82829 45.295 8.67195 44.6767 8.67195 44C8.67195 43.4867 8.76295 43.0083 8.94495 42.565C9.12695 42.117 9.37662 41.725 9.69395 41.389C10.016 41.0483 10.3893 40.7823 10.814 40.591C11.2386 40.3997 11.6913 40.304 12.172 40.304C12.816 40.304 13.4016 40.4697 13.929 40.801C14.461 41.1323 14.8833 41.578 15.196 42.138C15.5133 42.698 15.672 43.3187 15.672 44C15.672 44.5087 15.581 44.9847 15.399 45.428C15.217 45.8713 14.965 46.2633 14.643 46.604C14.3256 46.94 13.9546 47.2037 13.53 47.395C13.11 47.5863 12.6573 47.682 12.172 47.682ZM12.172 46.226C12.5593 46.226 12.907 46.1233 13.215 45.918C13.523 45.7127 13.7656 45.442 13.943 45.106C14.125 44.7653 14.216 44.3967 14.216 44C14.216 43.594 14.1226 43.2207 13.936 42.88C13.754 42.5393 13.509 42.2687 13.201 42.068C12.893 41.8627 12.55 41.76 12.172 41.76C11.7893 41.76 11.4416 41.8627 11.129 42.068C10.821 42.2733 10.576 42.5463 10.394 42.887C10.2166 43.2277 10.128 43.5987 10.128 44C10.128 44.4153 10.2213 44.791 10.408 45.127C10.5946 45.463 10.842 45.7313 11.15 45.932C11.4626 46.128 11.8033 46.226 12.172 46.226ZM22.2422 37H23.6982V47.5H22.2422V46.471C22.0136 46.835 21.7149 47.129 21.3462 47.353C20.9776 47.5723 20.5459 47.682 20.0512 47.682C19.5426 47.682 19.0666 47.5863 18.6232 47.395C18.1799 47.2037 17.7879 46.94 17.4472 46.604C17.1112 46.2633 16.8476 45.8713 16.6562 45.428C16.4649 44.9847 16.3692 44.5087 16.3692 44C16.3692 43.4913 16.4649 43.0153 16.6562 42.572C16.8476 42.124 17.1112 41.732 17.4472 41.396C17.7879 41.0553 18.1799 40.7893 18.6232 40.598C19.0666 40.4067 19.5426 40.311 20.0512 40.311C20.5459 40.311 20.9776 40.423 21.3462 40.647C21.7149 40.8663 22.0136 41.1557 22.2422 41.515V37ZM20.0652 46.275C20.4759 46.275 20.8352 46.1747 21.1432 45.974C21.4512 45.7687 21.6892 45.4933 21.8572 45.148C22.0299 44.8027 22.1162 44.42 22.1162 44C22.1162 43.5753 22.0299 43.1903 21.8572 42.845C21.6846 42.4997 21.4442 42.2267 21.1362 42.026C20.8329 41.8207 20.4759 41.718 20.0652 41.718C19.6592 41.718 19.2882 41.8207 18.9522 42.026C18.6209 42.2313 18.3549 42.5067 18.1542 42.852C17.9582 43.1973 17.8602 43.58 17.8602 44C17.8602 44.4247 17.9606 44.8097 18.1612 45.155C18.3666 45.4957 18.6349 45.7687 18.9662 45.974C19.3022 46.1747 19.6686 46.275 20.0652 46.275ZM28.3595 47.682C27.7155 47.682 27.1275 47.5163 26.5955 47.185C26.0681 46.8537 25.6458 46.4103 25.3285 45.855C25.0158 45.295 24.8595 44.6767 24.8595 44C24.8595 43.4867 24.9505 43.0083 25.1325 42.565C25.3145 42.117 25.5641 41.725 25.8815 41.389C26.2035 41.0483 26.5768 40.7823 27.0015 40.591C27.4261 40.3997 27.8788 40.304 28.3595 40.304C29.0035 40.304 29.5891 40.4697 30.1165 40.801C30.6485 41.1323 31.0708 41.578 31.3835 42.138C31.7008 42.698 31.8595 43.3187 31.8595 44C31.8595 44.5087 31.7685 44.9847 31.5865 45.428C31.4045 45.8713 31.1525 46.2633 30.8305 46.604C30.5131 46.94 30.1421 47.2037 29.7175 47.395C29.2975 47.5863 28.8448 47.682 28.3595 47.682ZM28.3595 46.226C28.7468 46.226 29.0945 46.1233 29.4025 45.918C29.7105 45.7127 29.9531 45.442 30.1305 45.106C30.3125 44.7653 30.4035 44.3967 30.4035 44C30.4035 43.594 30.3101 43.2207 30.1235 42.88C29.9415 42.5393 29.6965 42.2687 29.3885 42.068C29.0805 41.8627 28.7375 41.76 28.3595 41.76C27.9768 41.76 27.6291 41.8627 27.3165 42.068C27.0085 42.2733 26.7635 42.5463 26.5815 42.887C26.4041 43.2277 26.3155 43.5987 26.3155 44C26.3155 44.4153 26.4088 44.791 26.5955 45.127C26.7821 45.463 27.0295 45.7313 27.3375 45.932C27.6501 46.128 27.9908 46.226 28.3595 46.226Z" fill="#C6CFDC"/>
</svg>
